<svg xmlns="http://www.w3.org/2000/svg" width="462" height="440.377" viewBox="0 0 462 440.377">
  <g id="Group_6051" data-name="Group 6051" transform="translate(304.018 -341.674)" opacity="0.07">
    <path id="Path_11871" data-name="Path 11871" d="M-124.6,681.27c-88.328,0-160.184-71.857-160.184-160.181S-212.923,360.911-124.6,360.911,35.592,432.768,35.592,521.089-36.268,681.27-124.6,681.27Zm0-316.476c-86.185,0-156.3,70.113-156.3,156.294s70.116,156.3,156.3,156.3,156.307-70.113,156.307-156.3S-38.408,364.795-124.6,364.795Z" transform="translate(40.774 40.772)" fill="#ff85f3"/>
    <path id="Path_11872" data-name="Path 11872" d="M-109.753,717.953c-100.372,0-182.03-81.655-182.03-182.024s81.658-182.021,182.03-182.021S72.28,435.564,72.28,535.93-9.381,717.953-109.753,717.953Zm0-349.486c-92.342,0-167.468,75.126-167.468,167.462S-202.1,703.392-109.753,703.392,57.715,628.269,57.715,535.93-17.411,368.467-109.753,368.467Z" transform="translate(25.932 25.932)" fill="#ff85f3"/>
    <path id="Path_11873" data-name="Path 11873" d="M-87.2,773.708c-118.677,0-215.23-96.547-215.23-215.221S-205.872,343.266-87.2,343.266s215.23,96.547,215.23,215.221S31.481,773.708-87.2,773.708Zm0-429.085c-117.931,0-213.873,95.939-213.873,213.864S-205.127,772.354-87.2,772.354s213.876-95.939,213.876-213.867S30.736,344.623-87.2,344.623Z" transform="translate(3.374 3.374)" fill="#ff85f3"/>
    <path id="Path_11874" data-name="Path 11874" d="M-129.443,669.289c-84.391,0-153.05-68.656-153.05-153.047S-213.834,363.2-129.443,363.2,23.61,431.854,23.61,516.242-45.049,669.289-129.443,669.289Zm0-304.737c-83.645,0-151.7,68.051-151.7,151.69s68.051,151.69,151.7,151.69,151.7-68.048,151.7-151.69S-45.8,364.552-129.443,364.552Z" transform="translate(45.621 45.619)" fill="#ff85f3"/>
    <circle id="Ellipse_850" data-name="Ellipse 850" cx="128.814" cy="128.814" r="128.814" transform="matrix(0.024, -1, 1, 0.024, -215.654, 687.584)" fill="#ff85f3"/>
    <path id="Path_11875" data-name="Path 11875" d="M-270.6,491.2A115.949,115.949,0,0,1-154.65,375.253,115.953,115.953,0,0,1-38.693,491.2,115.953,115.953,0,0,1-154.65,607.148,115.949,115.949,0,0,1-270.6,491.2Z" transform="translate(70.828 71.169)" fill="#ff85f3"/>
    <circle id="Ellipse_851" data-name="Ellipse 851" cx="89.875" cy="89.875" r="89.875" transform="translate(-174.865 473.173) rotate(-0.75)" fill="#ff85f3"/>
    <path id="Path_11876" data-name="Path 11876" d="M-259.363,467.335a80.9,80.9,0,0,1,80.9-80.894,80.894,80.894,0,0,1,80.9,80.894,80.894,80.894,0,0,1-80.9,80.894A80.9,80.9,0,0,1-259.363,467.335Z" transform="translate(94.645 94.882)" fill="#ff85f3"/>
    <path id="Path_11877" data-name="Path 11877" d="M-223.947,347.32a5.644,5.644,0,0,1-5.646,5.643,5.646,5.646,0,0,1-5.646-5.643,5.647,5.647,0,0,1,5.646-5.646A5.645,5.645,0,0,1-223.947,347.32Z" transform="translate(145.772 0)" fill="#ff85f3"/>
    <path id="Path_11878" data-name="Path 11878" d="M-177.822,365.652a5.643,5.643,0,0,1-5.643,5.643,5.644,5.644,0,0,1-5.646-5.643,5.644,5.644,0,0,1,5.646-5.643A5.643,5.643,0,0,1-177.822,365.652Z" transform="translate(243.541 38.86)" fill="#ff85f3"/>
    <path id="Path_11879" data-name="Path 11879" d="M-154.952,413.724a5.644,5.644,0,0,1-5.646,5.643,5.646,5.646,0,0,1-5.646-5.643,5.647,5.647,0,0,1,5.646-5.646A5.645,5.645,0,0,1-154.952,413.724Z" transform="translate(292.007 140.741)" fill="#ff85f3"/>
    <path id="Path_11880" data-name="Path 11880" d="M-223.947,484.869a5.645,5.645,0,0,1-5.646,5.646,5.647,5.647,0,0,1-5.646-5.646,5.646,5.646,0,0,1,5.646-5.643A5.644,5.644,0,0,1-223.947,484.869Z" transform="translate(145.772 291.536)" fill="#ff85f3"/>
    <path id="Path_11881" data-name="Path 11881" d="M-298.372,421.739a5.645,5.645,0,0,1-5.646-5.646,5.644,5.644,0,0,1,5.646-5.643,5.644,5.644,0,0,1,5.643,5.643A5.644,5.644,0,0,1-298.372,421.739Z" transform="translate(0 145.768)" fill="#ff85f3"/>
    <path id="Path_11882" data-name="Path 11882" d="M-274.236,468.719a5.648,5.648,0,0,1-7.983,0,5.643,5.643,0,0,1,0-7.983,5.643,5.643,0,0,1,7.983,0A5.648,5.648,0,0,1-274.236,468.719Z" transform="translate(42.696 248.841)" fill="#ff85f3"/>
    <path id="Path_11883" data-name="Path 11883" d="M-184.951,468.719a5.643,5.643,0,0,1,0-7.983,5.643,5.643,0,0,1,7.983,0,5.648,5.648,0,0,1,0,7.983A5.648,5.648,0,0,1-184.951,468.719Z" transform="translate(248.852 248.841)" fill="#ff85f3"/>
    <path id="Path_11884" data-name="Path 11884" d="M-282.219,371.455a5.643,5.643,0,0,1,0-7.983,5.643,5.643,0,0,1,7.983,0,5.645,5.645,0,0,1,0,7.983A5.648,5.648,0,0,1-282.219,371.455Z" transform="translate(42.696 42.694)" fill="#ff85f3"/>
    <rect id="Rectangle_8078" data-name="Rectangle 8078" width="3.315" height="14.001" transform="translate(-85.478 356.439)" fill="#ff85f3"/>
    <rect id="Rectangle_8079" data-name="Rectangle 8079" width="3.315" height="14" transform="translate(-85.478 753.286)" fill="#ff85f3"/>
    <rect id="Rectangle_8080" data-name="Rectangle 8080" width="3.315" height="14" transform="translate(-92.647 356.622) rotate(-2.003)" fill="#ff85f3"/>
    <rect id="Rectangle_8081" data-name="Rectangle 8081" width="3.316" height="14" transform="translate(-78.795 753.226) rotate(-1.991)" fill="#ff85f3"/>
    <rect id="Rectangle_8082" data-name="Rectangle 8082" width="3.315" height="14.001" transform="translate(-99.803 357.054) rotate(-3.998)" fill="#ff85f3"/>
    <rect id="Rectangle_8083" data-name="Rectangle 8083" width="3.315" height="14.003" transform="translate(-72.12 752.933) rotate(-3.999)" fill="#ff85f3"/>
    <rect id="Rectangle_8084" data-name="Rectangle 8084" width="3.316" height="14" transform="translate(-106.941 357.736) rotate(-5.993)" fill="#ff85f3"/>
    <rect id="Rectangle_8085" data-name="Rectangle 8085" width="3.316" height="14.002" transform="matrix(0.995, -0.105, 0.105, 0.995, -65.459, 752.409)" fill="#ff85f3"/>
    <rect id="Rectangle_8086" data-name="Rectangle 8086" width="3.315" height="13.999" transform="translate(-114.051 358.668) rotate(-7.991)" fill="#ff85f3"/>
    <rect id="Rectangle_8087" data-name="Rectangle 8087" width="3.315" height="14" transform="translate(-58.819 751.653) rotate(-7.999)" fill="#ff85f3"/>
    <rect id="Rectangle_8088" data-name="Rectangle 8088" width="3.315" height="13.999" transform="translate(-121.125 359.848) rotate(-9.997)" fill="#ff85f3"/>
    <rect id="Rectangle_8089" data-name="Rectangle 8089" width="3.315" height="14" transform="translate(-52.21 750.666) rotate(-9.994)" fill="#ff85f3"/>
    <rect id="Rectangle_8090" data-name="Rectangle 8090" width="3.315" height="14.002" transform="translate(-128.153 361.272) rotate(-12.003)" fill="#ff85f3"/>
    <rect id="Rectangle_8091" data-name="Rectangle 8091" width="3.315" height="14.002" transform="translate(-45.64 749.447) rotate(-12.013)" fill="#ff85f3"/>
    <rect id="Rectangle_8092" data-name="Rectangle 8092" width="3.315" height="14.001" transform="translate(-135.127 362.942) rotate(-14.004)" fill="#ff85f3"/>
    <rect id="Rectangle_8093" data-name="Rectangle 8093" width="3.315" height="14" transform="translate(-39.116 748.001) rotate(-14.003)" fill="#ff85f3"/>
    <rect id="Rectangle_8094" data-name="Rectangle 8094" width="3.315" height="14.001" transform="translate(-142.038 364.852) rotate(-15.997)" fill="#ff85f3"/>
    <rect id="Rectangle_8095" data-name="Rectangle 8095" width="3.315" height="14.003" transform="translate(-32.647 746.327) rotate(-16.012)" fill="#ff85f3"/>
    <rect id="Rectangle_8096" data-name="Rectangle 8096" width="3.316" height="14.002" transform="translate(-148.878 367.004) rotate(-18)" fill="#ff85f3"/>
    <rect id="Rectangle_8097" data-name="Rectangle 8097" width="3.315" height="14.001" transform="translate(-26.241 744.429) rotate(-18.002)" fill="#ff85f3"/>
    <rect id="Rectangle_8098" data-name="Rectangle 8098" width="3.315" height="14.001" transform="translate(-155.639 369.392) rotate(-19.996)" fill="#ff85f3"/>
    <rect id="Rectangle_8099" data-name="Rectangle 8099" width="3.315" height="14.001" transform="matrix(0.94, -0.342, 0.342, 0.94, -19.905, 742.308)" fill="#ff85f3"/>
    <rect id="Rectangle_8100" data-name="Rectangle 8100" width="3.315" height="14" transform="translate(-162.313 372.017) rotate(-21.997)" fill="#ff85f3"/>
    <rect id="Rectangle_8101" data-name="Rectangle 8101" width="3.315" height="14.003" transform="translate(-13.646 739.968) rotate(-22.009)" fill="#ff85f3"/>
    <rect id="Rectangle_8102" data-name="Rectangle 8102" width="3.315" height="14.001" transform="translate(-168.891 374.873) rotate(-24.001)" fill="#ff85f3"/>
    <rect id="Rectangle_8103" data-name="Rectangle 8103" width="3.315" height="14.003" transform="translate(-7.47 737.41) rotate(-24)" fill="#ff85f3"/>
    <rect id="Rectangle_8104" data-name="Rectangle 8104" width="3.315" height="14.002" transform="translate(-175.366 377.954) rotate(-26.006)" fill="#ff85f3"/>
    <rect id="Rectangle_8105" data-name="Rectangle 8105" width="3.315" height="14.002" transform="translate(-1.391 734.639) rotate(-26.009)" fill="#ff85f3"/>
    <rect id="Rectangle_8106" data-name="Rectangle 8106" width="3.315" height="14.001" transform="matrix(0.883, -0.47, 0.47, 0.883, -181.729, 381.262)" fill="#ff85f3"/>
    <rect id="Rectangle_8107" data-name="Rectangle 8107" width="3.315" height="14.004" transform="translate(4.588 731.656) rotate(-28.011)" fill="#ff85f3"/>
    <rect id="Rectangle_8108" data-name="Rectangle 8108" width="3.315" height="14" transform="translate(-187.972 384.788) rotate(-30.008)" fill="#ff85f3"/>
    <rect id="Rectangle_8109" data-name="Rectangle 8109" width="3.315" height="14.004" transform="translate(10.459 728.467) rotate(-30.004)" fill="#ff85f3"/>
    <rect id="Rectangle_8110" data-name="Rectangle 8110" width="3.315" height="14.003" transform="matrix(0.848, -0.53, 0.53, 0.848, -194.089, 388.53)" fill="#ff85f3"/>
    <rect id="Rectangle_8111" data-name="Rectangle 8111" width="3.314" height="14.007" transform="matrix(0.848, -0.53, 0.53, 0.848, 16.217, 725.074)" fill="#ff85f3"/>
    <rect id="Rectangle_8112" data-name="Rectangle 8112" width="3.315" height="14.001" transform="translate(-200.07 392.483) rotate(-33.994)" fill="#ff85f3"/>
    <rect id="Rectangle_8113" data-name="Rectangle 8113" width="3.315" height="14.004" transform="translate(21.853 721.484) rotate(-34.005)" fill="#ff85f3"/>
    <rect id="Rectangle_8114" data-name="Rectangle 8114" width="3.315" height="14" transform="matrix(0.809, -0.588, 0.588, 0.809, -205.912, 396.645)" fill="#ff85f3"/>
    <rect id="Rectangle_8115" data-name="Rectangle 8115" width="3.316" height="14.004" transform="translate(27.36 717.7) rotate(-36.001)" fill="#ff85f3"/>
    <rect id="Rectangle_8116" data-name="Rectangle 8116" width="3.315" height="14.002" transform="translate(-211.604 401.005) rotate(-38.005)" fill="#ff85f3"/>
    <rect id="Rectangle_8117" data-name="Rectangle 8117" width="3.315" height="14.004" transform="matrix(0.788, -0.616, 0.616, 0.788, 32.73, 713.726)" fill="#ff85f3"/>
    <rect id="Rectangle_8118" data-name="Rectangle 8118" width="3.315" height="14" transform="matrix(0.766, -0.643, 0.643, 0.766, -217.139, 405.561)" fill="#ff85f3"/>
    <rect id="Rectangle_8119" data-name="Rectangle 8119" width="3.315" height="14.005" transform="translate(37.959 709.564) rotate(-40.011)" fill="#ff85f3"/>
    <rect id="Rectangle_8120" data-name="Rectangle 8120" width="3.315" height="14.001" transform="translate(-222.514 410.311) rotate(-42.001)" fill="#ff85f3"/>
    <rect id="Rectangle_8121" data-name="Rectangle 8121" width="3.316" height="14.005" transform="matrix(0.743, -0.669, 0.669, 0.743, 43.041, 705.224)" fill="#ff85f3"/>
    <rect id="Rectangle_8122" data-name="Rectangle 8122" width="3.315" height="14.002" transform="translate(-227.72 415.244) rotate(-44.017)" fill="#ff85f3"/>
    <rect id="Rectangle_8123" data-name="Rectangle 8123" width="3.315" height="14.003" transform="matrix(0.719, -0.695, 0.695, 0.719, 47.967, 700.71)" fill="#ff85f3"/>
    <rect id="Rectangle_8124" data-name="Rectangle 8124" width="3.315" height="14.003" transform="matrix(0.695, -0.719, 0.719, 0.695, -232.748, 420.354)" fill="#ff85f3"/>
    <rect id="Rectangle_8125" data-name="Rectangle 8125" width="3.315" height="13.999" transform="translate(52.735 696.027) rotate(-46.009)" fill="#ff85f3"/>
    <rect id="Rectangle_8126" data-name="Rectangle 8126" width="3.315" height="14.004" transform="matrix(0.669, -0.743, 0.743, 0.669, -237.596, 425.636)" fill="#ff85f3"/>
    <rect id="Rectangle_8127" data-name="Rectangle 8127" width="3.315" height="14.004" transform="matrix(0.669, -0.743, 0.743, 0.669, 57.334, 691.179)" fill="#ff85f3"/>
    <rect id="Rectangle_8128" data-name="Rectangle 8128" width="3.315" height="14.002" transform="translate(-242.258 431.086) rotate(-50.002)" fill="#ff85f3"/>
    <rect id="Rectangle_8129" data-name="Rectangle 8129" width="3.315" height="14.006" transform="translate(61.758 686.174) rotate(-50.018)" fill="#ff85f3"/>
    <rect id="Rectangle_8130" data-name="Rectangle 8130" width="3.315" height="14.003" transform="matrix(0.616, -0.788, 0.788, 0.616, -246.725, 436.695)" fill="#ff85f3"/>
    <rect id="Rectangle_8131" data-name="Rectangle 8131" width="3.315" height="14.007" transform="translate(66.008 681.015) rotate(-52.005)" fill="#ff85f3"/>
    <rect id="Rectangle_8132" data-name="Rectangle 8132" width="3.315" height="14.004" transform="translate(-250.995 442.457) rotate(-54.01)" fill="#ff85f3"/>
    <rect id="Rectangle_8133" data-name="Rectangle 8133" width="3.315" height="14.005" transform="matrix(0.588, -0.809, 0.809, 0.588, 70.075, 675.716)" fill="#ff85f3"/>
    <rect id="Rectangle_8134" data-name="Rectangle 8134" width="3.315" height="14.002" transform="translate(-255.061 448.365) rotate(-56.011)" fill="#ff85f3"/>
    <rect id="Rectangle_8135" data-name="Rectangle 8135" width="3.315" height="14.003" transform="translate(73.957 670.276) rotate(-56.012)" fill="#ff85f3"/>
    <rect id="Rectangle_8136" data-name="Rectangle 8136" width="3.315" height="14.002" transform="matrix(0.53, -0.848, 0.848, 0.53, -258.916, 454.409)" fill="#ff85f3"/>
    <rect id="Rectangle_8137" data-name="Rectangle 8137" width="3.315" height="14.004" transform="translate(77.645 664.706) rotate(-58.013)" fill="#ff85f3"/>
    <rect id="Rectangle_8138" data-name="Rectangle 8138" width="3.316" height="14.001" transform="matrix(0.5, -0.866, 0.866, 0.5, -262.56, 460.586)" fill="#ff85f3"/>
    <rect id="Rectangle_8139" data-name="Rectangle 8139" width="3.315" height="14.003" transform="translate(81.135 659.008) rotate(-60.012)" fill="#ff85f3"/>
    <rect id="Rectangle_8140" data-name="Rectangle 8140" width="3.315" height="14.001" transform="translate(-265.985 466.885) rotate(-62.001)" fill="#ff85f3"/>
    <rect id="Rectangle_8141" data-name="Rectangle 8141" width="3.315" height="14.003" transform="matrix(0.47, -0.883, 0.883, 0.47, 84.425, 653.189)" fill="#ff85f3"/>
    <rect id="Rectangle_8142" data-name="Rectangle 8142" width="3.315" height="14" transform="translate(-269.189 473.3) rotate(-64.008)" fill="#ff85f3"/>
    <rect id="Rectangle_8143" data-name="Rectangle 8143" width="3.315" height="14.002" transform="matrix(0.438, -0.899, 0.899, 0.438, 87.511, 647.265)" fill="#ff85f3"/>
    <rect id="Rectangle_8144" data-name="Rectangle 8144" width="3.315" height="14.001" transform="translate(-272.167 479.823) rotate(-66.001)" fill="#ff85f3"/>
    <rect id="Rectangle_8145" data-name="Rectangle 8145" width="3.315" height="14.003" transform="translate(90.389 641.234) rotate(-66.011)" fill="#ff85f3"/>
    <rect id="Rectangle_8146" data-name="Rectangle 8146" width="3.315" height="13.998" transform="translate(-274.914 486.445) rotate(-68.001)" fill="#ff85f3"/>
    <rect id="Rectangle_8147" data-name="Rectangle 8147" width="3.315" height="14.004" transform="translate(93.051 635.103) rotate(-67.995)" fill="#ff85f3"/>
    <rect id="Rectangle_8148" data-name="Rectangle 8148" width="3.316" height="14" transform="matrix(0.342, -0.94, 0.94, 0.342, -277.431, 493.16)" fill="#ff85f3"/>
    <rect id="Rectangle_8149" data-name="Rectangle 8149" width="3.315" height="14.003" transform="translate(95.501 628.887) rotate(-70.005)" fill="#ff85f3"/>
    <rect id="Rectangle_8150" data-name="Rectangle 8150" width="3.315" height="14.001" transform="translate(-279.712 499.959) rotate(-72)" fill="#ff85f3"/>
    <rect id="Rectangle_8151" data-name="Rectangle 8151" width="3.315" height="14.004" transform="translate(97.73 622.589) rotate(-72.003)" fill="#ff85f3"/>
    <rect id="Rectangle_8152" data-name="Rectangle 8152" width="3.316" height="14.002" transform="matrix(0.276, -0.961, 0.961, 0.276, -281.753, 506.832)" fill="#ff85f3"/>
    <rect id="Rectangle_8153" data-name="Rectangle 8153" width="3.316" height="14.003" transform="matrix(0.276, -0.961, 0.961, 0.276, 99.738, 616.216)" fill="#ff85f3"/>
    <rect id="Rectangle_8154" data-name="Rectangle 8154" width="3.315" height="14" transform="translate(-283.551 513.773) rotate(-76.003)" fill="#ff85f3"/>
    <rect id="Rectangle_8155" data-name="Rectangle 8155" width="3.315" height="14.001" transform="translate(101.526 609.777) rotate(-75.997)" fill="#ff85f3"/>
    <rect id="Rectangle_8156" data-name="Rectangle 8156" width="3.315" height="14" transform="translate(-285.108 520.773) rotate(-78.002)" fill="#ff85f3"/>
    <rect id="Rectangle_8157" data-name="Rectangle 8157" width="3.314" height="14.002" transform="translate(103.085 603.278) rotate(-77.996)" fill="#ff85f3"/>
    <rect id="Rectangle_8158" data-name="Rectangle 8158" width="3.315" height="14" transform="translate(-286.419 527.823) rotate(-80.003)" fill="#ff85f3"/>
    <rect id="Rectangle_8159" data-name="Rectangle 8159" width="3.315" height="14.004" transform="translate(104.415 596.73) rotate(-80.004)" fill="#ff85f3"/>
    <rect id="Rectangle_8160" data-name="Rectangle 8160" width="3.315" height="14" transform="matrix(0.139, -0.99, 0.99, 0.139, -287.484, 534.913)" fill="#ff85f3"/>
    <rect id="Rectangle_8161" data-name="Rectangle 8161" width="3.315" height="14.004" transform="translate(105.517 590.141) rotate(-82)" fill="#ff85f3"/>
    <rect id="Rectangle_8162" data-name="Rectangle 8162" width="3.315" height="13.998" transform="translate(-288.3 542.037) rotate(-84.007)" fill="#ff85f3"/>
    <rect id="Rectangle_8163" data-name="Rectangle 8163" width="3.315" height="14.002" transform="matrix(0.105, -0.995, 0.995, 0.105, 106.39, 583.516)" fill="#ff85f3"/>
    <rect id="Rectangle_8164" data-name="Rectangle 8164" width="3.315" height="13.999" transform="translate(-288.868 549.185) rotate(-85.999)" fill="#ff85f3"/>
    <rect id="Rectangle_8165" data-name="Rectangle 8165" width="3.315" height="14.002" transform="translate(107.031 576.866) rotate(-86.003)" fill="#ff85f3"/>
    <rect id="Rectangle_8166" data-name="Rectangle 8166" width="3.315" height="14" transform="translate(-289.185 556.349) rotate(-88.002)" fill="#ff85f3"/>
    <rect id="Rectangle_8167" data-name="Rectangle 8167" width="3.315" height="14.005" transform="matrix(0.035, -0.999, 0.999, 0.035, 107.437, 570.196)" fill="#ff85f3"/>
    <rect id="Rectangle_8168" data-name="Rectangle 8168" width="13.998" height="3.315" transform="translate(-289.252 560.203)" fill="#ff85f3"/>
    <rect id="Rectangle_8169" data-name="Rectangle 8169" width="14.004" height="3.315" transform="translate(107.611 560.201)" fill="#ff85f3"/>
    <rect id="Rectangle_8170" data-name="Rectangle 8170" width="14" height="3.315" transform="translate(-289.185 567.373) rotate(-2)" fill="#ff85f3"/>
    <rect id="Rectangle_8171" data-name="Rectangle 8171" width="14.007" height="3.315" transform="translate(107.434 553.521) rotate(-2)" fill="#ff85f3"/>
    <rect id="Rectangle_8172" data-name="Rectangle 8172" width="13.999" height="3.315" transform="translate(-288.868 574.537) rotate(-4.004)" fill="#ff85f3"/>
    <rect id="Rectangle_8173" data-name="Rectangle 8173" width="14.005" height="3.315" transform="translate(107.027 546.853) rotate(-4.018)" fill="#ff85f3"/>
    <rect id="Rectangle_8174" data-name="Rectangle 8174" width="13.998" height="3.315" transform="translate(-288.3 581.685) rotate(-6.012)" fill="#ff85f3"/>
    <rect id="Rectangle_8175" data-name="Rectangle 8175" width="14.005" height="3.315" transform="matrix(0.995, -0.105, 0.105, 0.995, 106.387, 540.201)" fill="#ff85f3"/>
    <rect id="Rectangle_8176" data-name="Rectangle 8176" width="13.999" height="3.315" transform="translate(-287.485 588.81) rotate(-8.014)" fill="#ff85f3"/>
    <rect id="Rectangle_8177" data-name="Rectangle 8177" width="14.007" height="3.315" transform="matrix(0.99, -0.139, 0.139, 0.99, 105.515, 533.576)" fill="#ff85f3"/>
    <rect id="Rectangle_8178" data-name="Rectangle 8178" width="14" height="3.315" transform="translate(-286.419 595.901) rotate(-10.011)" fill="#ff85f3"/>
    <rect id="Rectangle_8179" data-name="Rectangle 8179" width="14.003" height="3.315" transform="translate(104.413 526.986) rotate(-10.01)" fill="#ff85f3"/>
    <rect id="Rectangle_8180" data-name="Rectangle 8180" width="14" height="3.315" transform="translate(-285.109 602.952) rotate(-12.021)" fill="#ff85f3"/>
    <rect id="Rectangle_8181" data-name="Rectangle 8181" width="14.005" height="3.315" transform="matrix(0.978, -0.208, 0.208, 0.978, 103.082, 520.44)" fill="#ff85f3"/>
    <rect id="Rectangle_8182" data-name="Rectangle 8182" width="13.998" height="3.315" transform="matrix(0.97, -0.242, 0.242, 0.97, -283.551, 609.948)" fill="#ff85f3"/>
    <rect id="Rectangle_8183" data-name="Rectangle 8183" width="14.004" height="3.315" transform="matrix(0.97, -0.242, 0.242, 0.97, 101.523, 513.941)" fill="#ff85f3"/>
    <rect id="Rectangle_8184" data-name="Rectangle 8184" width="13.999" height="3.316" transform="matrix(0.961, -0.276, 0.276, 0.961, -281.753, 616.889)" fill="#ff85f3"/>
    <rect id="Rectangle_8185" data-name="Rectangle 8185" width="14.006" height="3.316" transform="translate(99.735 507.502) rotate(-15.997)" fill="#ff85f3"/>
    <rect id="Rectangle_8186" data-name="Rectangle 8186" width="13.999" height="3.315" transform="matrix(0.951, -0.309, 0.309, 0.951, -279.712, 623.764)" fill="#ff85f3"/>
    <rect id="Rectangle_8187" data-name="Rectangle 8187" width="14.003" height="3.315" transform="matrix(0.951, -0.309, 0.309, 0.951, 97.727, 501.129)" fill="#ff85f3"/>
    <rect id="Rectangle_8188" data-name="Rectangle 8188" width="13.999" height="3.314" transform="matrix(0.94, -0.342, 0.342, 0.94, -277.431, 630.562)" fill="#ff85f3"/>
    <rect id="Rectangle_8189" data-name="Rectangle 8189" width="14.003" height="3.314" transform="translate(95.498 494.832) rotate(-20.007)" fill="#ff85f3"/>
    <rect id="Rectangle_8190" data-name="Rectangle 8190" width="13.998" height="3.315" transform="translate(-274.914 637.278) rotate(-22.007)" fill="#ff85f3"/>
    <rect id="Rectangle_8191" data-name="Rectangle 8191" width="14.003" height="3.315" transform="translate(93.048 488.614) rotate(-22.009)" fill="#ff85f3"/>
    <rect id="Rectangle_8192" data-name="Rectangle 8192" width="13.998" height="3.315" transform="translate(-272.167 643.901) rotate(-24.001)" fill="#ff85f3"/>
    <rect id="Rectangle_8193" data-name="Rectangle 8193" width="14.005" height="3.315" transform="translate(90.385 482.486) rotate(-24.001)" fill="#ff85f3"/>
    <rect id="Rectangle_8194" data-name="Rectangle 8194" width="13.998" height="3.316" transform="translate(-269.189 650.423) rotate(-26.003)" fill="#ff85f3"/>
    <rect id="Rectangle_8195" data-name="Rectangle 8195" width="14.002" height="3.316" transform="matrix(0.899, -0.438, 0.438, 0.899, 87.509, 476.455)" fill="#ff85f3"/>
    <rect id="Rectangle_8196" data-name="Rectangle 8196" width="13.998" height="3.315" transform="translate(-265.985 656.84) rotate(-28.006)" fill="#ff85f3"/>
    <rect id="Rectangle_8197" data-name="Rectangle 8197" width="14.005" height="3.315" transform="translate(84.423 470.528) rotate(-28.006)" fill="#ff85f3"/>
    <rect id="Rectangle_8198" data-name="Rectangle 8198" width="13.999" height="3.314" transform="translate(-262.56 663.139) rotate(-30.01)" fill="#ff85f3"/>
    <rect id="Rectangle_8199" data-name="Rectangle 8199" width="14.005" height="3.316" transform="matrix(0.866, -0.5, 0.5, 0.866, 81.131, 464.712)" fill="#ff85f3"/>
    <rect id="Rectangle_8200" data-name="Rectangle 8200" width="13.998" height="3.316" transform="matrix(0.848, -0.53, 0.53, 0.848, -258.916, 669.314)" fill="#ff85f3"/>
    <rect id="Rectangle_8201" data-name="Rectangle 8201" width="14.006" height="3.316" transform="matrix(0.848, -0.53, 0.53, 0.848, 77.642, 459.015)" fill="#ff85f3"/>
    <rect id="Rectangle_8202" data-name="Rectangle 8202" width="13.999" height="3.315" transform="translate(-255.061 675.361) rotate(-34.005)" fill="#ff85f3"/>
    <rect id="Rectangle_8203" data-name="Rectangle 8203" width="14.006" height="3.315" transform="translate(73.954 453.444) rotate(-34.005)" fill="#ff85f3"/>
    <rect id="Rectangle_8204" data-name="Rectangle 8204" width="14.003" height="3.315" transform="translate(-250.996 681.268) rotate(-36.003)" fill="#ff85f3"/>
    <rect id="Rectangle_8205" data-name="Rectangle 8205" width="14.007" height="3.315" transform="matrix(0.809, -0.588, 0.588, 0.809, 70.072, 448.004)" fill="#ff85f3"/>
    <rect id="Rectangle_8206" data-name="Rectangle 8206" width="13.999" height="3.315" transform="translate(-246.725 687.027) rotate(-38.002)" fill="#ff85f3"/>
    <rect id="Rectangle_8207" data-name="Rectangle 8207" width="14.005" height="3.315" transform="matrix(0.788, -0.616, 0.616, 0.788, 66.005, 442.701)" fill="#ff85f3"/>
    <rect id="Rectangle_8208" data-name="Rectangle 8208" width="13.999" height="3.315" transform="matrix(0.766, -0.643, 0.643, 0.766, -242.257, 692.636)" fill="#ff85f3"/>
    <rect id="Rectangle_8209" data-name="Rectangle 8209" width="14.006" height="3.315" transform="matrix(0.766, -0.643, 0.643, 0.766, 61.755, 437.545)" fill="#ff85f3"/>
    <rect id="Rectangle_8210" data-name="Rectangle 8210" width="13.998" height="3.315" transform="matrix(0.743, -0.669, 0.669, 0.743, -237.596, 698.086)" fill="#ff85f3"/>
    <rect id="Rectangle_8211" data-name="Rectangle 8211" width="14.005" height="3.315" transform="matrix(0.743, -0.669, 0.669, 0.743, 57.328, 432.541)" fill="#ff85f3"/>
    <rect id="Rectangle_8212" data-name="Rectangle 8212" width="13.999" height="3.315" transform="translate(-232.748 703.37) rotate(-44.012)" fill="#ff85f3"/>
    <rect id="Rectangle_8213" data-name="Rectangle 8213" width="14.003" height="3.315" transform="translate(52.729 427.693) rotate(-44.002)" fill="#ff85f3"/>
    <rect id="Rectangle_8214" data-name="Rectangle 8214" width="13.999" height="3.315" transform="matrix(0.695, -0.719, 0.719, 0.695, -227.721, 708.479)" fill="#ff85f3"/>
    <rect id="Rectangle_8215" data-name="Rectangle 8215" width="14.004" height="3.315" transform="translate(47.964 423.011) rotate(-46.02)" fill="#ff85f3"/>
    <rect id="Rectangle_8216" data-name="Rectangle 8216" width="14" height="3.315" transform="matrix(0.669, -0.743, 0.743, 0.669, -222.513, 713.415)" fill="#ff85f3"/>
    <rect id="Rectangle_8217" data-name="Rectangle 8217" width="14.003" height="3.315" transform="translate(43.038 418.496) rotate(-48.02)" fill="#ff85f3"/>
    <rect id="Rectangle_8218" data-name="Rectangle 8218" width="13.999" height="3.315" transform="matrix(0.643, -0.766, 0.766, 0.643, -217.138, 718.163)" fill="#ff85f3"/>
    <rect id="Rectangle_8219" data-name="Rectangle 8219" width="14.005" height="3.315" transform="matrix(0.643, -0.766, 0.766, 0.643, 37.956, 414.157)" fill="#ff85f3"/>
    <rect id="Rectangle_8220" data-name="Rectangle 8220" width="14" height="3.315" transform="matrix(0.616, -0.788, 0.788, 0.616, -211.604, 722.721)" fill="#ff85f3"/>
    <rect id="Rectangle_8221" data-name="Rectangle 8221" width="14.005" height="3.315" transform="matrix(0.616, -0.788, 0.788, 0.616, 32.725, 409.997)" fill="#ff85f3"/>
    <rect id="Rectangle_8222" data-name="Rectangle 8222" width="13.998" height="3.315" transform="matrix(0.588, -0.809, 0.809, 0.588, -205.912, 727.08)" fill="#ff85f3"/>
    <rect id="Rectangle_8223" data-name="Rectangle 8223" width="14.004" height="3.315" transform="matrix(0.588, -0.809, 0.809, 0.588, 27.354, 406.02)" fill="#ff85f3"/>
    <rect id="Rectangle_8224" data-name="Rectangle 8224" width="13.999" height="3.315" transform="matrix(0.559, -0.829, 0.829, 0.559, -200.071, 731.241)" fill="#ff85f3"/>
    <rect id="Rectangle_8225" data-name="Rectangle 8225" width="14.005" height="3.315" transform="matrix(0.559, -0.829, 0.829, 0.559, 21.848, 402.238)" fill="#ff85f3"/>
    <rect id="Rectangle_8226" data-name="Rectangle 8226" width="13.999" height="3.315" transform="matrix(0.53, -0.848, 0.848, 0.53, -194.089, 735.196)" fill="#ff85f3"/>
    <rect id="Rectangle_8227" data-name="Rectangle 8227" width="14.005" height="3.315" transform="matrix(0.53, -0.848, 0.848, 0.53, 16.214, 398.648)" fill="#ff85f3"/>
    <rect id="Rectangle_8228" data-name="Rectangle 8228" width="13.999" height="3.315" transform="matrix(0.5, -0.866, 0.866, 0.5, -187.972, 738.936)" fill="#ff85f3"/>
    <rect id="Rectangle_8229" data-name="Rectangle 8229" width="14.003" height="3.316" transform="translate(10.456 395.253) rotate(-60.006)" fill="#ff85f3"/>
    <rect id="Rectangle_8230" data-name="Rectangle 8230" width="13.998" height="3.315" transform="matrix(0.469, -0.883, 0.883, 0.469, -181.727, 742.464)" fill="#ff85f3"/>
    <rect id="Rectangle_8231" data-name="Rectangle 8231" width="14.004" height="3.315" transform="translate(4.585 392.067) rotate(-62.017)" fill="#ff85f3"/>
    <rect id="Rectangle_8232" data-name="Rectangle 8232" width="13.995" height="3.315" transform="matrix(0.438, -0.899, 0.899, 0.438, -175.367, 745.768)" fill="#ff85f3"/>
    <rect id="Rectangle_8233" data-name="Rectangle 8233" width="14.003" height="3.316" transform="translate(-1.397 389.084) rotate(-64)" fill="#ff85f3"/>
    <rect id="Rectangle_8234" data-name="Rectangle 8234" width="13.999" height="3.315" transform="translate(-168.892 748.854) rotate(-66.002)" fill="#ff85f3"/>
    <rect id="Rectangle_8235" data-name="Rectangle 8235" width="14.004" height="3.315" transform="matrix(0.407, -0.914, 0.914, 0.407, -7.476, 386.313)" fill="#ff85f3"/>
    <rect id="Rectangle_8236" data-name="Rectangle 8236" width="13.998" height="3.315" transform="translate(-162.313 751.709) rotate(-68.008)" fill="#ff85f3"/>
    <rect id="Rectangle_8237" data-name="Rectangle 8237" width="14.005" height="3.315" transform="translate(-13.65 383.756) rotate(-68.007)" fill="#ff85f3"/>
    <rect id="Rectangle_8238" data-name="Rectangle 8238" width="13.998" height="3.315" transform="translate(-155.639 754.333) rotate(-70.012)" fill="#ff85f3"/>
    <rect id="Rectangle_8239" data-name="Rectangle 8239" width="14.005" height="3.315" transform="translate(-19.907 381.417) rotate(-70.013)" fill="#ff85f3"/>
    <rect id="Rectangle_8240" data-name="Rectangle 8240" width="13.998" height="3.316" transform="translate(-148.879 756.72) rotate(-71.998)" fill="#ff85f3"/>
    <rect id="Rectangle_8241" data-name="Rectangle 8241" width="14.003" height="3.315" transform="translate(-26.242 379.296) rotate(-72.026)" fill="#ff85f3"/>
    <rect id="Rectangle_8242" data-name="Rectangle 8242" width="13.998" height="3.315" transform="translate(-142.037 758.874) rotate(-74.016)" fill="#ff85f3"/>
    <rect id="Rectangle_8243" data-name="Rectangle 8243" width="14.006" height="3.315" transform="translate(-32.652 377.398) rotate(-74.014)" fill="#ff85f3"/>
    <rect id="Rectangle_8244" data-name="Rectangle 8244" width="13.999" height="3.315" transform="matrix(0.242, -0.97, 0.97, 0.242, -135.127, 760.785)" fill="#ff85f3"/>
    <rect id="Rectangle_8245" data-name="Rectangle 8245" width="14.005" height="3.315" transform="translate(-39.121 375.725) rotate(-76.012)" fill="#ff85f3"/>
    <rect id="Rectangle_8246" data-name="Rectangle 8246" width="14" height="3.316" transform="translate(-128.154 762.454) rotate(-77.997)" fill="#ff85f3"/>
    <rect id="Rectangle_8247" data-name="Rectangle 8247" width="14.005" height="3.316" transform="translate(-45.647 374.278) rotate(-77.997)" fill="#ff85f3"/>
    <rect id="Rectangle_8248" data-name="Rectangle 8248" width="13.997" height="3.315" transform="matrix(0.173, -0.985, 0.985, 0.173, -121.124, 763.879)" fill="#ff85f3"/>
    <rect id="Rectangle_8249" data-name="Rectangle 8249" width="14.003" height="3.315" transform="translate(-52.214 373.059) rotate(-80.019)" fill="#ff85f3"/>
    <rect id="Rectangle_8250" data-name="Rectangle 8250" width="13.997" height="3.315" transform="translate(-114.053 765.057) rotate(-82)" fill="#ff85f3"/>
    <rect id="Rectangle_8251" data-name="Rectangle 8251" width="14.003" height="3.315" transform="translate(-58.824 372.071) rotate(-82.001)" fill="#ff85f3"/>
    <rect id="Rectangle_8252" data-name="Rectangle 8252" width="13.999" height="3.316" transform="translate(-106.942 765.989) rotate(-84.002)" fill="#ff85f3"/>
    <rect id="Rectangle_8253" data-name="Rectangle 8253" width="14.003" height="3.316" transform="translate(-65.463 371.313) rotate(-84.002)" fill="#ff85f3"/>
    <rect id="Rectangle_8254" data-name="Rectangle 8254" width="13.998" height="3.315" transform="translate(-99.805 766.671) rotate(-85.996)" fill="#ff85f3"/>
    <rect id="Rectangle_8255" data-name="Rectangle 8255" width="14.004" height="3.315" transform="translate(-72.122 370.791) rotate(-86.025)" fill="#ff85f3"/>
    <rect id="Rectangle_8256" data-name="Rectangle 8256" width="13.999" height="3.316" transform="matrix(0.035, -0.999, 0.999, 0.035, -92.645, 767.105)" fill="#ff85f3"/>
    <rect id="Rectangle_8257" data-name="Rectangle 8257" width="14.005" height="3.316" transform="translate(-78.8 370.498) rotate(-88.013)" fill="#ff85f3"/>
    <circle id="Ellipse_852" data-name="Ellipse 852" cx="1.796" cy="1.796" r="1.796" transform="matrix(1, -0.011, 0.011, 1, 154.35, 471.761)" fill="#ff85f3"/>
  </g>
</svg>
