<svg xmlns="http://www.w3.org/2000/svg" width="51.124" height="62.116" viewBox="0 0 51.124 62.116">
  <g id="Group_6040" data-name="Group 6040" transform="translate(2020.831 3564.008)">
    <path id="Path_11851" data-name="Path 11851" d="M392.8,191c1.424,5.933-.011,11.518-3.206,12.473s-6.941-3.079-8.365-9.013.011-11.518,3.206-12.473,6.941,3.08,8.365,9.013" transform="translate(-2372.621 -3725.763)" fill="#8050cb"/>
    <path id="Path_11852" data-name="Path 11852" d="M146.527,130.011a42.2,42.2,0,0,1-13.427-9.765,13.244,13.244,0,0,1-5.086-.407c-6.307-2.034-9.969-14.444-7.12-19.936.61-1.627,2.848-2.848,4.069-3.865a104.193,104.193,0,0,1,7.731-18.919c-5.7,17.5-.407,41.3,13.833,52.894Z" transform="translate(-2140.746 -3632.638)" fill="#8050cb"/>
    <path id="Path_11853" data-name="Path 11853" d="M248.036.868c6.1-1.831,14.648,3.865,17.9,9.358-6.1-5.7-13.833-4.272-18.106,2.238-7.527,12,.2,43.129,15.461,40.28,5.9-1.017,10.782-7.324,11.393-17.293,1.221,6.1-1.017,24.006-10.986,26.854-8.748,2.441-20.953-8.951-25.226-25.836-4.272-17.089,0-32.956,9.562-35.6Z" transform="translate(-2244.696 -3564.526)" fill="#8050cb"/>
  </g>
</svg>
