<svg xmlns="http://www.w3.org/2000/svg" xmlns:xlink="http://www.w3.org/1999/xlink" width="322.213" height="58.602" viewBox="0 0 322.213 58.602">
  <defs>
    <linearGradient id="linear-gradient" y1="0.5" x2="1" y2="0.5" gradientUnits="objectBoundingBox">
      <stop offset="0" stop-color="#202477"/>
      <stop offset="1" stop-color="#5a237f"/>
    </linearGradient>
  </defs>
  <path id="Path_11846" data-name="Path 11846" d="M403.762,679.9c.417-1.834,26.166.064,28.641.267,11.316.933,22.718,3.3,32.589,9.147,11.694,6.921,20.225,18,31.86,24.994a84.474,84.474,0,0,0,27.217,10.474c6.941,1.321,14.269,1.319,20.923-1.06,17.8-6.366,35.258-6.646,54.027-3.572,25.75,4.216,50.29,13.678,76.5,14.826,16.422.719,32.909-.628,49.2,2.1-61.813-.821-123.691-.016-185.512-.009-26.365,0-52.632-1.043-78.92.394-11.7.639-23.9.354-34.429-4.773C406.488,723.262,399.362,699.979,403.762,679.9Z" transform="translate(-402.507 -679.11)" opacity="0.1" fill="url(#linear-gradient)"/>
</svg>
