<svg xmlns="http://www.w3.org/2000/svg" xmlns:xlink="http://www.w3.org/1999/xlink" width="94.231" height="94.23" viewBox="0 0 94.231 94.23">
  <defs>
    <linearGradient id="linear-gradient" y1="0.5" x2="1" y2="0.5" gradientUnits="objectBoundingBox">
      <stop offset="0" stop-color="#202477"/>
      <stop offset="1" stop-color="#5a237f"/>
    </linearGradient>
  </defs>
  <path id="Path_11856" data-name="Path 11856" d="M2617.337-229.989a47.115,47.115,0,0,0-47.116,47.115,47.112,47.112,0,0,0,47.116,47.115,47.114,47.114,0,0,0,47.115-47.115A47.118,47.118,0,0,0,2617.337-229.989Zm5.092,72.037a48.978,48.978,0,0,1-6.733.3h-15.681v-52.781h7.358v39.808a20.6,20.6,0,0,0,5.021,1.461,33.123,33.123,0,0,0,6.014.579q7.13,0,11.379-4.005t4.252-10.769a14.977,14.977,0,0,0-3.564-10.322,11.693,11.693,0,0,0-9.174-4.026,13.979,13.979,0,0,0-8.087,2.621v-15.348h2.867a48.2,48.2,0,0,1,6.727.307c12.241,1.533,20.886,9.717,20.886,25.471C2643.694-169.12,2634.669-159.486,2622.428-157.952Z" transform="translate(-2570.221 229.989)" fill="url(#linear-gradient)"/>
</svg>
