<svg xmlns="http://www.w3.org/2000/svg" xmlns:xlink="http://www.w3.org/1999/xlink" width="32.308" height="35.539" viewBox="0 0 32.308 35.539">
  <defs>
    <linearGradient id="linear-gradient" x1="0.826" x2="0.211" y2="1" gradientUnits="objectBoundingBox">
      <stop offset="0" stop-color="#33247a"/>
      <stop offset="1" stop-color="#33247a"/>
    </linearGradient>
  </defs>
  <path id="Path_11858" data-name="Path 11858" d="M1250.3,1042.171a6.028,6.028,0,0,0-4.766,2.342l-9.813-5.694a6.188,6.188,0,0,0,0-4.6l9.813-5.694a6.04,6.04,0,1,0-1.292-3.715,6.154,6.154,0,0,0,.444,2.3l-9.814,5.694a6.051,6.051,0,1,0-4.765,9.773,6.024,6.024,0,0,0,4.765-2.342l9.814,5.694a6.152,6.152,0,0,0-.444,2.3,6.058,6.058,0,1,0,6.058-6.058Zm0-21.808a4.442,4.442,0,1,1-4.443,4.443A4.43,4.43,0,0,1,1250.3,1020.364Zm-20.193,20.6a4.443,4.443,0,1,1,4.442-4.442,4.43,4.43,0,0,1-4.442,4.442Zm20.193,11.712a4.442,4.442,0,1,1,4.442-4.443A4.43,4.43,0,0,1,1250.3,1052.672Z" transform="translate(-1224.05 -1018.748)" fill="url(#linear-gradient)"/>
</svg>
