<?xml version="1.0" encoding="utf-8"?>
<!-- Generator: Adobe Illustrator 25.2.0, SVG Export Plug-In . SVG Version: 6.00 Build 0)  -->
<svg version="1.1" id="Layer_1" xmlns="http://www.w3.org/2000/svg" xmlns:xlink="http://www.w3.org/1999/xlink" x="0px" y="0px"
	 viewBox="0 0 50 50" style="enable-background:new 0 0 50 50;" xml:space="preserve">
<style type="text/css">
	.st0{fill:url(#Path_11857_1_);}
</style>
<linearGradient id="Path_11857_1_" gradientUnits="userSpaceOnUse" x1="-507.6144" y1="554.0201" x2="-506.4742" y2="554.0201" gradientTransform="matrix(43.8552 0 0 -32.874 22261.5586 18236.6641)">
	<stop  offset="0" style="stop-color:#2D2D73"/>
	<stop  offset="1" style="stop-color:#5A2C7F"/>
</linearGradient>
<path id="Path_11857" class="st0" d="M24.98,3.09c-0.23,0.01-0.45,0.1-0.64,0.25L0.49,23.45c-0.51,0.4-0.63,1.19-0.27,1.76
	c0.37,0.57,1.08,0.7,1.59,0.29c0.02-0.02,0.04-0.03,0.06-0.05l4.99-4.2V43.3c0,0.7,0.51,1.26,1.14,1.26h11.36
	c0.63,0,1.14-0.56,1.14-1.26V30.74h9.09V43.3c0,0.7,0.51,1.26,1.14,1.26h11.36c0.63,0,1.14-0.56,1.14-1.26V21.25l4.99,4.2
	c0.51,0.4,1.22,0.27,1.59-0.29c0.35-0.54,0.26-1.29-0.21-1.71L25.73,3.35C25.51,3.17,25.25,3.08,24.98,3.09L24.98,3.09z M25.03,5.94
	l15.9,13.39v22.72h-9.09V29.48c0-0.7-0.51-1.26-1.14-1.26H19.35c-0.63,0-1.14,0.56-1.14,1.26v12.57H9.13V19.33L25.03,5.94z"/>
</svg>
