<?xml version="1.0" encoding="utf-8"?>
<!-- Generator: Adobe Illustrator 25.2.0, SVG Export Plug-In . SVG Version: 6.00 Build 0)  -->
<svg version="1.1" id="Layer_1" xmlns="http://www.w3.org/2000/svg" xmlns:xlink="http://www.w3.org/1999/xlink" x="0px" y="0px"
	 viewBox="0 0 50 50" style="enable-background:new 0 0 50 50;" xml:space="preserve">
<style type="text/css">
	.st0{opacity:0.47;fill:#919090;enable-background:new    ;}
</style>
<path id="Path_11862" class="st0" d="M30.95,27.04c4.18-2.71,6.75-7.32,6.86-12.31c0-6.67-5.45-14.1-12.82-14.1
	s-12.82,7.43-12.82,14.1c0.11,4.99,2.67,9.59,6.86,12.31C8.94,29.76,1.93,38.9,1.92,49.35c0,0.71,0.58,1.29,1.29,1.29l0,0h43.58
	c0.71,0,1.29-0.58,1.29-1.29l0,0c-0.01-10.45-7.02-19.59-17.11-22.3H30.95z M14.74,14.74c0-6.6,5.44-11.54,10.26-11.54
	s10.26,4.94,10.26,11.54s-5.44,11.54-10.26,11.54S14.74,21.34,14.74,14.74z M4.55,48.07c0.69-11.29,10.41-19.88,21.7-19.19
	c10.32,0.64,18.55,8.87,19.19,19.19H4.55z"/>
</svg>
