<?xml version="1.0" encoding="utf-8"?>
<!-- Generator: Adobe Illustrator 25.2.0, SVG Export Plug-In . SVG Version: 6.00 Build 0)  -->
<svg version="1.1" id="Layer_1" xmlns="http://www.w3.org/2000/svg" xmlns:xlink="http://www.w3.org/1999/xlink" x="0px" y="0px"
	 viewBox="0 0 50 50" style="enable-background:new 0 0 50 50;" xml:space="preserve">
<style type="text/css">
	.st0{opacity:0.47;fill:#919090;enable-background:new    ;}
</style>
<path id="Path_11858" class="st0" d="M39.13,32.99c-2.64,0-5.13,1.22-6.74,3.31l-13.88-8.05c0.84-2.09,0.84-4.42,0-6.51l13.88-8.05
	c2.92,3.71,8.29,4.35,11.99,1.43c3.71-2.92,4.35-8.29,1.43-11.99c-2.92-3.71-8.29-4.35-12-1.43c-2.07,1.63-3.27,4.11-3.26,6.74
	c0,1.11,0.21,2.22,0.63,3.25l-13.88,8.05c-2.91-3.73-8.28-4.39-12.01-1.48c-3.73,2.91-4.39,8.28-1.48,12.01
	c1.62,2.08,4.12,3.3,6.76,3.29c2.64,0,5.13-1.22,6.74-3.31l13.88,8.05c-0.42,1.03-0.63,2.14-0.63,3.25c0,4.73,3.84,8.57,8.57,8.57
	s8.57-3.84,8.57-8.57C47.69,36.83,43.86,32.99,39.13,32.99L39.13,32.99L39.13,32.99z M39.13,2.15c3.47,0,6.28,2.81,6.28,6.28
	c0,3.47-2.81,6.28-6.28,6.28c-3.47,0-6.28-2.81-6.28-6.28c-0.01-3.46,2.79-6.27,6.25-6.28C39.1,2.15,39.11,2.15,39.13,2.15
	L39.13,2.15z M10.57,31.28c-3.47,0-6.28-2.81-6.29-6.28c0-3.47,2.81-6.28,6.28-6.29c3.47,0,6.28,2.81,6.29,6.28c0,0,0,0,0,0
	c0.01,3.46-2.79,6.27-6.25,6.28C10.59,31.28,10.58,31.28,10.57,31.28z M39.13,47.85c-3.47,0-6.28-2.81-6.28-6.28
	s2.81-6.28,6.28-6.28c3.47,0,6.28,2.81,6.28,6.28c0.01,3.46-2.79,6.27-6.25,6.28C39.15,47.84,39.14,47.84,39.13,47.85L39.13,47.85z"
	/>
</svg>
