<svg xmlns="http://www.w3.org/2000/svg" width="57.361" height="57.361" viewBox="0 0 57.361 57.361">
  <path id="noun-share-4512787" d="M211.266,132.42a9.151,9.151,0,0,0-7.505,4.289L187.142,128.4a13.286,13.286,0,0,0,2.144-6.969,12.587,12.587,0,0,0-2.144-6.969l16.619-8.309a8.555,8.555,0,0,0,7.505,4.289,8.845,8.845,0,1,0-8.845-8.845,5.9,5.9,0,0,0,.268,2.144l-17.155,8.577a13.791,13.791,0,0,0-9.65-4.021,13.134,13.134,0,0,0,0,26.268,13.791,13.791,0,0,0,9.65-4.021l17.155,8.577a5.225,5.225,0,0,0-.268,2.144,8.845,8.845,0,1,0,17.691,0A8.752,8.752,0,0,0,211.266,132.42Zm0-36.99A6.165,6.165,0,1,1,205.1,101.6,6.066,6.066,0,0,1,211.266,95.43Zm-35.113,36.722a10.722,10.722,0,1,1,10.722-10.722A10.753,10.753,0,0,1,176.152,132.152Zm35.113,15.278a6.165,6.165,0,1,1,6.165-6.165A6.066,6.066,0,0,1,211.266,147.43Z" transform="translate(-162.75 -92.75)" fill="#7e55d7"/>
</svg>
