<svg xmlns="http://www.w3.org/2000/svg" width="55.531" height="47.235" viewBox="0 0 55.531 47.235">
  <g id="Group_6246" data-name="Group 6246" transform="translate(-84.5 -830)">
    <path id="Path_11988" data-name="Path 11988" d="M172.005,27.243V6.582a1.186,1.186,0,0,0-2.024-.838l-5.535,5.535c-3.1-2.965-8.626-7.488-15.4-9.8-8.579-2.934-16.43-1.471-23.333,4.341a1.186,1.186,0,0,0,.791,2.1c16.486,0,23.721,7.424,28.536,12.334l.229.229L149.343,26.4a1.186,1.186,0,0,0,.846,2.024h20.629a1.186,1.186,0,0,0,1.186-1.186Zm-2.372-1.186h-16.6l4.744-4.744h0a1.194,1.194,0,0,0,0-1.676l-1.059-1.043c-4.444-4.547-11.678-11.947-26.8-12.936,14.438-9.2,29.256,3.716,33.7,8.12h0a1.178,1.178,0,0,0,1.676,0l4.333-4.325Z" transform="translate(-31.974 829.987)" fill="#7e55d7"/>
    <path id="Path_11989" data-name="Path 11989" d="M43.76,223.84a1.186,1.186,0,0,0-1.091-.735H22.016a1.186,1.186,0,0,0-1.186,1.186v20.661a1.184,1.184,0,0,0,2.024.838l5.535-5.535c3.1,2.965,8.626,7.519,15.371,9.8a25.7,25.7,0,0,0,8.342,1.463,22.973,22.973,0,0,0,15.024-5.812,1.186,1.186,0,0,0-.791-2.1c-16.478,0-23.721-7.417-28.536-12.327l-.229-.237,5.922-5.922a1.178,1.178,0,0,0,.269-1.289Zm-8.7,6.365a1.194,1.194,0,0,0,0,1.676l1.044,1.068c4.491,4.546,11.7,11.939,26.8,12.927-14.406,9.212-29.287-3.708-33.7-8.12a1.186,1.186,0,0,0-1.676,0L23.2,242.089v-16.6h16.6Z" transform="translate(63.67 625.713)" fill="#7e55d7"/>
  </g>
</svg>
