<?xml version="1.0" encoding="utf-8"?>
<!-- Generator: Adobe Illustrator 25.2.0, SVG Export Plug-In . SVG Version: 6.00 Build 0)  -->
<svg version="1.1" id="Layer_1" xmlns="http://www.w3.org/2000/svg" xmlns:xlink="http://www.w3.org/1999/xlink" x="0px" y="0px"
	 viewBox="0 0 50 50" style="enable-background:new 0 0 50 50;" xml:space="preserve">
<style type="text/css">
	.st0{fill:#919090;}
</style>
<g id="Group_6243" transform="translate(-2841.792 6192)">
	<path id="Path_11988" class="st0" d="M2891.69-6164.95v-18.42c0-0.58-0.47-1.06-1.06-1.06c-0.28,0-0.55,0.11-0.75,0.31l-4.94,4.94
		c-3.91-3.84-8.59-6.82-13.73-8.73c-7.11-2.72-15.14-1.22-20.8,3.87c-0.45,0.37-0.51,1.04-0.13,1.49c0.21,0.25,0.52,0.39,0.84,0.38
		c14.7,0,21.15,6.62,25.44,11l0.2,0.2l-5.28,5.28c-0.41,0.41-0.41,1.08,0,1.5c0.2,0.2,0.47,0.31,0.75,0.31h18.39
		C2891.22-6163.89,2891.69-6164.37,2891.69-6164.95C2891.69-6164.95,2891.69-6164.95,2891.69-6164.95L2891.69-6164.95z
		 M2889.58-6166.01h-14.8l4.23-4.23l0,0c0.41-0.41,0.41-1.08,0-1.5l-0.94-0.93c-3.96-4.05-10.41-10.65-23.89-11.53
		c12.87-8.21,26.08,3.31,30.05,7.24l0,0c0.4,0.41,1.07,0.42,1.48,0.02c0.01-0.01,0.01-0.01,0.02-0.02l3.86-3.86L2889.58-6166.01z"/>
	<path id="Path_11989" class="st0" d="M2862.63-6171.79c-0.16-0.39-0.55-0.65-0.97-0.65h-18.41c-0.58,0-1.06,0.47-1.06,1.06l0,0
		v18.43c0,0.58,0.47,1.06,1.05,1.06c0.28,0,0.55-0.11,0.75-0.31l4.93-4.93c3.9,3.85,8.57,6.82,13.7,8.74
		c2.39,0.84,4.9,1.29,7.44,1.31c4.94-0.05,9.7-1.89,13.4-5.18c0.45-0.38,0.51-1.04,0.13-1.49c-0.21-0.25-0.52-0.39-0.84-0.38
		c-14.69,0-21.15-6.61-25.44-10.99l-0.2-0.21l5.28-5.28c0.31-0.3,0.4-0.75,0.24-1.15V-6171.79z M2854.87-6166.12
		c-0.41,0.41-0.41,1.08,0,1.5l0.93,0.95c4,4.05,10.43,10.64,23.9,11.53c-12.84,8.21-26.11-3.31-30.05-7.24
		c-0.41-0.41-1.08-0.41-1.49,0l-3.86,3.86v-14.8h14.8L2854.87-6166.12z"/>
</g>
</svg>
