<svg xmlns="http://www.w3.org/2000/svg" width="61.252" height="61.251" viewBox="0 0 61.252 61.251">
  <path id="Path_12484" data-name="Path 12484" d="M198.452,97.826a30.626,30.626,0,1,0-30.626,30.626,30.258,30.258,0,0,0,16.441-4.836l1.773,2.579a4.942,4.942,0,0,0,4.11,2.176,4.8,4.8,0,0,0,2.579-.725,5.257,5.257,0,0,0,2.257-3.143,4.88,4.88,0,0,0-.725-3.788l-2.418-3.627a4.43,4.43,0,0,0,3.465-3.223,4.965,4.965,0,0,0,0-2.66,29.73,29.73,0,0,0,3.144-13.379Zm-7.415-14.507H181.93a48.414,48.414,0,0,0-4.755-11.283A27.352,27.352,0,0,1,191.037,83.319Zm-20.471,18.859,1.773,6.931H156.3a54.7,54.7,0,0,1-1.209-9.671h15.555a4.527,4.527,0,0,0-.081,2.74Zm-15.474-5.964a48.165,48.165,0,0,1,1.29-9.671h22.969a54.693,54.693,0,0,1,1.209,9.671Zm12.734-25.79a29.661,29.661,0,0,1,4.674.4,40.861,40.861,0,0,1,6.045,12.492H157.268a40.2,40.2,0,0,1,6.367-12.573,23.869,23.869,0,0,1,4.191-.322Zm-8.946,1.531a49.643,49.643,0,0,0-5,11.364h-9.269A27.319,27.319,0,0,1,158.88,71.955ZM142.842,86.542h10.236a54.694,54.694,0,0,0-1.209,9.671H140.5a27.5,27.5,0,0,1,2.337-9.671ZM140.5,99.437h11.444a54.654,54.654,0,0,0,1.128,9.671H142.842a27.494,27.494,0,0,1-2.337-9.671Zm4.11,12.9H153.8a48.415,48.415,0,0,0,4.755,11.283A27.214,27.214,0,0,1,144.615,112.333Zm27.4,12.573a23.87,23.87,0,0,1-4.191.322,29.659,29.659,0,0,1-4.674-.4,40.861,40.861,0,0,1-6.045-12.492h15.958l2.015,7.9a35.886,35.886,0,0,1-3.062,4.675Zm4.755-1.209,14.184-9.672-4.836.242,1.531,2.418,3.868,5.883a1.661,1.661,0,0,1-.564,2.418c-.161.08-.242.161-.4.161h-.08c-.08,0-.242.08-.322.08h-.08a.728.728,0,0,1-.4-.08h-.08c-.08,0-.161-.08-.242-.08a.079.079,0,0,1-.08-.08c-.08-.08-.161-.08-.242-.161l-.08-.08a1.113,1.113,0,0,1-.242-.322l-1.773-2.66-3.788-5.641-1.854,4.674a1.767,1.767,0,0,1-.242.4l-.08.08c-.08.08-.161.161-.242.161s-.08.08-.161.08-.161.08-.242.08h-.806c-.08,0-.161-.08-.242-.161a.079.079,0,0,1-.08-.08c-.08-.08-.242-.161-.322-.322l-.242-.483-1.371-5-.322-1.128-3.3-13.056c0-.161-.08-.242,0-.4v-.08a.3.3,0,0,1,.08-.242v-.08c.08-.08.08-.161.161-.322l.242-.242a.079.079,0,0,0,.08-.08.3.3,0,0,1,.242-.08h.08c.08,0,.242-.08.322-.08h.483c.161.08.242.08.4.161l4.513,3.223,2.982,2.176,5.319,3.788,3.143,2.257a1.46,1.46,0,0,1-.725,2.658Zm2.176-5.641-9.43-6.77a19.688,19.688,0,0,0,.08-2.176h11.444a29.633,29.633,0,0,1-2.1,8.946Zm-9.349-12.17a54.657,54.657,0,0,0-1.128-9.671H192.81a27.558,27.558,0,0,1,2.418,9.671Z" transform="translate(-137.2 -67.2)" fill="#7e55d7" opacity="0.9"/>
</svg>
