<svg xmlns="http://www.w3.org/2000/svg" width="61.252" height="68.199" viewBox="0 0 61.252 68.199">
  <g id="Group_6248" data-name="Group 6248" transform="translate(-4481.948 8471.103)">
    <path id="Path_12554" data-name="Path 12554" d="M140.964,67.746V56.57h5.373V53.632h-5.373V43.675h10.674c-.071,1.433-.143,2.794-.286,4.155a4.747,4.747,0,0,1,1.433.43l1.433.717a43.188,43.188,0,0,0,.358-5.373h10.6a25.736,25.736,0,0,1-2.508,9.671l2.651,1.361A28.271,28.271,0,0,0,168.187,42.1a28.656,28.656,0,1,0-28.656,28.656,27.414,27.414,0,0,0,6.878-.86V63.161c-1.647,2.435-3.51,4.011-5.444,4.584Zm24.214-27.008h-10.6a54.214,54.214,0,0,0-1.146-9.958h9.1A25.658,25.658,0,0,1,165.178,40.738Zm-4.37-12.895h-8.167a26.97,26.97,0,0,0-5.158-10.029A25.217,25.217,0,0,1,160.808,27.843Zm-19.844-11.1c3.51.931,6.591,5.158,8.525,11.1h-8.525Zm0,14.041h9.385a47.806,47.806,0,0,1,1.289,9.958H140.964Zm-9.456-13.038a28.7,28.7,0,0,0-5.158,10.029h-8.167a25.676,25.676,0,0,1,13.325-10.03ZM116.464,30.78h9.1a54.256,54.256,0,0,0-1.146,9.958h-10.6a25.657,25.657,0,0,1,2.651-9.958Zm-2.651,12.895h10.6a53.5,53.5,0,0,0,1.146,9.958h-9.1a25.66,25.66,0,0,1-2.651-9.958Zm4.37,12.895h8.167A26.97,26.97,0,0,0,131.508,66.6,25.305,25.305,0,0,1,118.184,56.57Zm19.844,11.176c-3.51-1-6.591-5.158-8.525-11.176h8.525Zm0-14.113h-9.313a48.449,48.449,0,0,1-1.289-9.958h10.6Zm0-12.895H127.353a48.487,48.487,0,0,1,1.289-9.958h9.313v9.958Zm0-12.895H129.5c1.934-6.018,5.015-10.173,8.525-11.1Z" transform="translate(4371.073 -8484.547)" fill="#8762d8"/>
    <path id="Path_12555" data-name="Path 12555" d="M433.892,317.369a1.458,1.458,0,0,0-.788-1.361l-19.916-10.173a1.464,1.464,0,0,0-1.433.071,1.5,1.5,0,0,0-.717,1.289l.072,22.28a1.606,1.606,0,0,0,.859,1.361,1.568,1.568,0,0,0,1.576-.215l4.585-4.084,5.659,9.241a1.6,1.6,0,0,0,1.289.717,1.631,1.631,0,0,0,.788-.215l6.519-4.012a1.261,1.261,0,0,0,.645-.931,2.126,2.126,0,0,0-.143-1.146l-5.659-9.241,5.731-2.293a1.376,1.376,0,0,0,.931-1.289Zm-9.385,1.433a1.4,1.4,0,0,0-.859.931,1.444,1.444,0,0,0,.143,1.218l5.8,9.457-4.012,2.436-5.8-9.457a1.622,1.622,0,0,0-1.074-.717h-.215a1.711,1.711,0,0,0-1,.358l-3.51,3.08V309.56l14.829,7.594Z" transform="translate(4109.308 -8739.399)" fill="#8762d8"/>
  </g>
</svg>
