<svg xmlns="http://www.w3.org/2000/svg" width="47.616" height="66.355" viewBox="0 0 47.616 66.355">
  <g id="Group_6165" data-name="Group 6165" transform="translate(-1271.322 8942.543)">
    <path id="Path_11946" data-name="Path 11946" d="M214.651,61.85c-3.12-4.05-6.345-8.237-8.2-12.64a16.382,16.382,0,0,1-1.383-8.479,1.205,1.205,0,0,0-1.663-1.268c-.4.167-9.822,4.329-12.824,23.227a3.407,3.407,0,0,1-1.949,2.728,1.31,1.31,0,0,1-1.242.044c-.418-.235-1.19-1.047-1.639-3.84a1.206,1.206,0,0,0-2.207-.456c-.167.263-16.477,26.424,5.159,40.53a24.649,24.649,0,0,0,13.461,4.028,24.154,24.154,0,0,0,6.817-.982,22.952,22.952,0,0,0,13.78-11.193A20.673,20.673,0,0,0,224.724,88c2-10.481-4.139-18.446-10.074-26.15Zm7.706,25.7a18.262,18.262,0,0,1-1.739,4.9,20.5,20.5,0,0,1-12.315,9.981,22.04,22.04,0,0,1-18.28-2.753C173.932,89.187,180.808,71.563,184.16,65a4.927,4.927,0,0,0,2.052,2.569,3.692,3.692,0,0,0,3.327.089,5.815,5.815,0,0,0,3.429-4.594c1.983-12.483,6.915-18.03,9.586-20.186a20.176,20.176,0,0,0,1.677,7.269c1.971,4.693,5.294,9.006,8.508,13.178,5.867,7.616,11.409,14.81,9.616,24.226Z" transform="translate(1093.829 -8981.912)" fill="#7e55d7"/>
    <path id="Path_11947" data-name="Path 11947" d="M242.54,264.3a15.525,15.525,0,1,0,15.525-15.525A15.542,15.542,0,0,0,242.54,264.3Zm28.575-1.214H269.8a1.206,1.206,0,0,0,0,2.413h1.311a13.044,13.044,0,0,1-2.966,7.169l-.925-.924a1.207,1.207,0,0,0-1.707,1.707l.925.924a13.049,13.049,0,0,1-7.166,2.976v-1.31a1.206,1.206,0,1,0-2.413,0v1.31a13.059,13.059,0,0,1-7.17-2.966l.924-.924a1.206,1.206,0,1,0-1.705-1.706l-.925.925a13.049,13.049,0,0,1-2.976-7.166h1.31a1.206,1.206,0,0,0,0-2.413h-1.31a13.052,13.052,0,0,1,2.966-7.169l.924.924a1.206,1.206,0,1,0,1.706-1.706l-.925-.925a13.038,13.038,0,0,1,7.166-2.976v1.31a1.206,1.206,0,1,0,2.413,0v-1.31a13.052,13.052,0,0,1,7.169,2.966l-.925.925a1.206,1.206,0,0,0,1.706,1.705l.925-.925a13.036,13.036,0,0,1,2.979,7.164Z" transform="translate(1037.75 -9162.453)" fill="#7e55d7"/>
    <path id="Path_11948" data-name="Path 11948" d="M315.084,297.82v-5.155a1.206,1.206,0,1,0-2.413,0v5.155a3.5,3.5,0,0,0-2.3,3.28,3.464,3.464,0,0,0,.333,1.468l-3.07,3.07a1.206,1.206,0,0,0,1.706,1.705l3.07-3.07a3.459,3.459,0,0,0,1.468.333,3.5,3.5,0,0,0,1.206-6.786Zm-1.206,4.374a1.094,1.094,0,1,1,1.094-1.094A1.1,1.1,0,0,1,313.878,302.194Z" transform="translate(981.935 -9199.248)" fill="#7e55d7"/>
  </g>
</svg>
