<svg xmlns="http://www.w3.org/2000/svg" width="53.21" height="61.871" viewBox="0 0 53.21 61.871">
  <g id="Group_6166" data-name="Group 6166" transform="translate(-169.774 -647.413)">
    <path id="Path_11986" data-name="Path 11986" d="M263.478,161.333c-.517-9.113-6.72-18.289-15.524-23.13a4.293,4.293,0,0,0-.156-2.645,4.131,4.131,0,0,0-1.673-1.892c5.254-8.154,4.036-12.813,3.978-13.015a1.067,1.067,0,0,0-.563-.669c-14.553-7-28.228,2.918-28.8,3.344a1.066,1.066,0,0,0,0,1.715,23.251,23.251,0,0,1,7.352,8.621,4.3,4.3,0,0,0-1.593,1.928,7.207,7.207,0,0,0-.283,2.465c-10.785,5.53-19.162,18.872-14.679,30.487,3.6,9.322,15.719,10.778,22.624,10.816l.808,0c8.75,0,19.226-.851,24.795-6.71,2.728-2.873,3.979-6.679,3.716-11.316Zm-35.133-23.406a5.127,5.127,0,0,1,.168-1.636,2.649,2.649,0,0,1,1-1.021,22.328,22.328,0,0,0,10.177.965h.01a28.53,28.53,0,0,0,4.834-1.006,2.5,2.5,0,0,1,1.3,1.14,2.31,2.31,0,0,1,.024,1.474,29.645,29.645,0,0,1-17.5.086Zm-5.14-13.669c3.483-2.122,14.034-7.5,24.907-2.588.112,1.277,0,5.261-4.217,11.513a26.938,26.938,0,0,1-2.816.684,13.388,13.388,0,0,0-.2-6.323,1.066,1.066,0,0,0-2.023.675,12.1,12.1,0,0,1-.013,5.951,20.362,20.362,0,0,1-8.59-.906,24.011,24.011,0,0,0-7.045-9.006Zm35.01,46.923c-5.177,5.449-15.544,6.092-24.044,6.045-6.361-.036-17.5-1.31-20.645-9.452-3.314-8.583,1.49-21.75,13.87-27.916a27.664,27.664,0,0,0,9.272,1.479,34.459,34.459,0,0,0,9.867-1.483c8.265,4.378,14.338,13.2,14.814,21.6.232,4.081-.793,7.263-3.134,9.726Z" transform="translate(-40.527 529.924)" fill="#7e55d7"/>
    <path id="Path_11987" data-name="Path 11987" d="M320.3,285.144a.967.967,0,0,0,0-1.935H315.7l5.347-6.642a.967.967,0,0,0-1.506-1.213l-5.86,7.28-5.86-7.279a.967.967,0,1,0-1.506,1.213l5.347,6.642H307.07a.967.967,0,1,0,0,1.935h5.646v3.01H307.07a.967.967,0,1,0,0,1.935h5.646v6.048a.967.967,0,1,0,1.935,0v-6.048H320.3a.967.967,0,0,0,0-1.935h-5.646v-3.01Z" transform="translate(-117.304 403.355)" fill="#7e55d7"/>
  </g>
</svg>
