<svg xmlns="http://www.w3.org/2000/svg" width="60.658" height="60.72" viewBox="0 0 60.658 60.72">
  <path id="Path_11967" data-name="Path 11967" d="M121.493,15.337a9.946,9.946,0,0,0,.24-2.176A10.1,10.1,0,0,0,105.651,5,15.17,15.17,0,0,0,79.23,15.186v.188A11.132,11.132,0,0,0,81.254,37.45h15.18V57.69a3.035,3.035,0,0,0,3.036,3.036h2.024a3.035,3.035,0,0,0,3.036-3.036V37.45h15.18a11.132,11.132,0,0,0,1.784-22.112Zm-18.988,2.884H98.457V16.2a1.012,1.012,0,0,1,1.012-1.012h2.024a1.012,1.012,0,0,1,1.012,1.012Zm2.024,2.024v6.072h-8.1V20.246ZM101.493,58.7H99.47a1.012,1.012,0,0,1-1.012-1.012V28.341h4.048V57.689a1.012,1.012,0,0,1-1.012,1.012Zm18.216-23.275h-15.18V28.342a2.016,2.016,0,0,0,1.743-1.012h12.562a1.888,1.888,0,0,0,1.316-3.239c-4.206-4.088-11.531-4.735-13.865-4.837a2.018,2.018,0,0,0-1.756-1.032V16.2a3.036,3.036,0,0,0-3.036-3.036H99.47A3.036,3.036,0,0,0,96.434,16.2v2.024a2.016,2.016,0,0,0-1.754,1.033c-2.337.1-9.662.75-13.865,4.837a1.888,1.888,0,0,0,1.316,3.238h12.56a2.017,2.017,0,0,0,1.743,1.011v7.084H81.254a9.108,9.108,0,0,1-.867-18.17,1.012,1.012,0,0,0,.911-1.064l-.016-.268c-.012-.246-.028-.491-.028-.737a13.148,13.148,0,0,1,23.478-8.144,1.009,1.009,0,0,0,1.471.12,8.08,8.08,0,0,1,13.507,6,7.941,7.941,0,0,1-.476,2.712,1.012,1.012,0,0,0,.9,1.355,9.108,9.108,0,0,1-.428,18.2Zm-1.223-10.12H106.554V21.3C108.931,21.449,114.967,22.133,118.486,25.306Zm-24.076,0H82.476C86,22.132,92.034,21.448,94.41,21.3Z" transform="translate(-70.136 -0.006)" fill="#7e55d7"/>
</svg>
