<svg xmlns="http://www.w3.org/2000/svg" width="50.865" height="55.291" viewBox="0 0 50.865 55.291">
  <path id="Path_11284" data-name="Path 11284" d="M1619.408,941.513a17.66,17.66,0,0,1-5.713-12.9V925.48a19.059,19.059,0,0,0-14.376-18.431,4.04,4.04,0,0,0,.185-1.474,5.161,5.161,0,1,0-10.321,0,7.1,7.1,0,0,0,.185,1.474,19,19,0,0,0-14.376,18.431v3.133a17.658,17.658,0,0,1-5.713,12.9,1.171,1.171,0,0,0-.368.83v8.2a1.065,1.065,0,0,0,1.1,1.106H1584.3a15.106,15.106,0,0,0,10.135,4.055,14.312,14.312,0,0,0,9.952-4.055h14.284a1.064,1.064,0,0,0,1.1-1.106v-8.2a1,1,0,0,0-.368-.83Zm-24.973-38.887a2.912,2.912,0,0,1,2.949,2.949,4.624,4.624,0,0,1-.184,1.1,19.453,19.453,0,0,0-2.3-.184h-.829a17.978,17.978,0,0,0-2.3.184,4.632,4.632,0,0,1-.185-1.1,2.783,2.783,0,0,1,2.857-2.949Zm0,50.867a11.439,11.439,0,0,1-6.359-1.843h12.809A11.967,11.967,0,0,1,1594.435,953.493Zm23.13-4.054h-46.26V942.8a19.662,19.662,0,0,0,6.082-14.191V925.48a16.675,16.675,0,0,1,16.68-16.679h.829a16.675,16.675,0,0,1,16.679,16.679v3.133a19.661,19.661,0,0,0,6.082,14.191v6.635Z" transform="translate(-1568.91 -900.414)" fill="#040505"/>
</svg>
