<svg xmlns="http://www.w3.org/2000/svg" width="65.881" height="65.88" viewBox="0 0 65.881 65.88">
  <g id="Group_404" data-name="Group 404" transform="translate(-1355.225 -904.702)">
    <path id="Path_11285" data-name="Path 11285" d="M1413.053,904.7h-49.776a7.791,7.791,0,0,0-8.052,7.539v37.845a7.792,7.792,0,0,0,8.052,7.54h5.271v11.2a1.828,1.828,0,0,0,1.1,1.611,1.583,1.583,0,0,0,.806.146,2.463,2.463,0,0,0,1.244-.366l16.616-12.59h24.742a7.793,7.793,0,0,0,8.053-7.54V912.241a7.792,7.792,0,0,0-8.053-7.539Zm4.32,45.311a4.1,4.1,0,0,1-4.246,3.952H1387.58a2.472,2.472,0,0,0-1.244.366l-13.982,10.614v-9.223a1.864,1.864,0,0,0-1.9-1.757h-7.173a4.1,4.1,0,0,1-4.246-3.952V912.388a4.1,4.1,0,0,1,4.246-3.953H1413.2a4.1,4.1,0,0,1,4.245,3.953v37.625Z" fill="#040505"/>
    <path id="Path_11286" data-name="Path 11286" d="M1374.257,932.3h10.4v-3.66h-10.4V924.1h11.273v-3.806h-15.665v21.375h16.177v-3.88h-11.785Z" fill="#040505"/>
    <path id="Path_11287" data-name="Path 11287" d="M1402.659,935.226l-8.491-14.933h-4.685v21.375h4.172V926.515l8.711,15.153h4.466V920.293h-4.173Z" fill="#040505"/>
  </g>
</svg>
