<svg xmlns="http://www.w3.org/2000/svg" width="76.871" height="66.539" viewBox="0 0 76.871 66.539">
  <path id="Path_11288" data-name="Path 11288" d="M1527.626,939.5V929.178a29.248,29.248,0,0,0-58.5,0V939.5c-5.514,2.581-9.187,7.148-9.187,12.344,0,8.052,8.826,14.624,19.665,14.624h0a1.291,1.291,0,0,0,1.29-1.29V938.538a1.291,1.291,0,0,0-1.29-1.29,25.471,25.471,0,0,0-7.9,1.23v-9.29a26.667,26.667,0,1,1,53.333,0v9.29a25.466,25.466,0,0,0-7.9-1.23,1.29,1.29,0,0,0-1.29,1.29v26.608a1.29,1.29,0,0,0,1.29,1.291c10.838,0,19.665-6.555,19.665-14.59,0-5.2-3.673-9.755-9.187-12.344Zm-49.309,24.318c-8.8-.5-15.768-5.66-15.768-11.974s6.968-11.518,15.768-11.983Zm40.1,0V939.863c8.843.464,15.819,5.66,15.819,11.983s-6.976,11.475-15.8,11.974Z" transform="translate(-1459.943 -899.931)" fill="#040505"/>
</svg>
